<svg width="312" height="312" viewBox="0 0 312 312" fill="none" xmlns="http://www.w3.org/2000/svg">
<path d="M163.461 133.527C173.164 138.482 186.937 156.885 186.937 156.885L203.718 137.063C211.159 139.422 217.476 144.428 221.472 151.134L198.911 176.703C196.459 179.476 193.099 181.284 189.435 181.803C185.77 182.322 182.04 181.518 178.915 179.534L150.51 161.456L165.197 175.435L170.092 241.379C162.566 244.231 154.238 244.115 146.794 241.054L140.335 140.251C145.383 143.26 158.241 138.926 163.461 133.527Z" fill="#FECFC4"/>
<path d="M145.796 121.347C147.008 121.347 148.171 121.829 149.028 122.686C149.885 123.543 150.367 124.706 150.367 125.918C150.367 127.131 149.885 128.293 149.028 129.151C148.171 130.008 147.008 130.49 145.796 130.49C144.583 130.49 143.421 130.008 142.563 129.151C141.706 128.293 141.225 127.131 141.225 125.918C141.225 124.706 141.706 123.543 142.563 122.686C143.421 121.829 144.583 121.347 145.796 121.347Z" fill="#FECFC4"/>
<path d="M108.931 224.745C108.933 228.513 107.615 232.163 105.207 235.061C102.799 237.96 99.4528 239.923 95.7482 240.612V275.914H89.8203V240.612C86.1172 239.92 82.7725 237.956 80.365 235.058C77.9576 232.161 76.639 228.513 76.6375 224.745H108.931ZM92.799 236.011C93.1979 236.011 93.5929 235.932 93.9614 235.78C94.3299 235.627 94.6647 235.403 94.9467 235.121C95.2287 234.839 95.4524 234.504 95.6049 234.135C95.7575 233.767 95.836 233.372 95.8359 232.973C95.8358 232.574 95.7571 232.179 95.6044 231.81C95.4516 231.442 95.2278 231.107 94.9456 230.825C94.6635 230.543 94.3286 230.319 93.96 230.167C93.5914 230.014 93.1964 229.936 92.7975 229.936C91.9918 229.936 91.2193 230.256 90.6497 230.826C90.0802 231.396 89.7604 232.169 89.7606 232.974C89.7608 233.78 90.081 234.553 90.6508 235.122C91.2206 235.692 91.9934 236.011 92.799 236.011Z" fill="#FECFC4"/>
<path d="M214.718 275.83C214.568 273.97 213.96 272.177 212.949 270.61C208.941 264.623 205.871 259.589 205.871 245.099H226.485C226.485 258.604 223.904 263.415 219.555 270.344C218.452 271.978 217.782 273.866 217.608 275.83C217.726 280.578 218.229 282.259 222.946 283.911H209.38C214.069 282.254 214.659 280.573 214.718 275.83ZM219.85 260.524L218.552 256.218L222.15 253.505L217.638 253.416L216.163 249.169L214.689 253.416L210.176 253.505L213.774 256.218L212.477 260.524L216.163 257.958L219.85 260.524Z" fill="#FECFC4"/>
<path d="M150.544 161.456L165.231 175.435L164.877 170.569L150.544 161.456Z" fill="#6153BD"/>
<path d="M148.86 266.004C150.651 258.227 151.111 250.201 150.22 242.27C155.291 243.671 160.63 243.791 165.759 242.617C165.409 246.313 165.841 250.041 167.027 253.559C164.962 255.937 160.771 257.039 159.919 266.034C159.794 267.288 159.21 268.451 158.279 269.301C157.348 270.15 156.136 270.625 154.876 270.635H139.098C140.306 269.217 141.8 268.071 143.483 267.273C145.165 266.475 146.998 266.043 148.86 266.004Z" fill="#6153BD"/>
<path d="M216.225 126.331C227.757 124.414 245.599 123.559 252.323 126.331C245.934 130.852 239.046 134.622 231.794 137.568C229.045 138.313 226.529 139.741 224.48 141.72L219.083 147.795C215.777 143.462 211.381 140.083 206.343 138.004L216.225 126.331Z" fill="#6153BD"/>
<path d="M149.453 96.1611L147.211 98.7269C147.135 98.1386 146.98 97.5643 146.746 97.0195C147.674 96.8207 148.58 96.5333 149.453 96.1611Z" fill="#6153BD"/>
<path d="M158.484 78.2596C166.499 86.7533 153.847 94.1557 152.896 94.6881C152.928 92.2849 153.155 89.8882 153.574 87.5216C156.818 86.4351 155.314 82.5965 153.132 84.1068C152.442 84.6562 151.724 84.9822 151.598 84.1068C150.684 78.5623 146.466 77.0877 143.812 82.2193C147.418 74.927 152.234 72.3085 158.484 78.2596Z" fill="#6153BD"/>
<path d="M157.799 68.026C158.736 67.2504 159.879 66.7657 161.088 66.6316C162.297 66.4975 163.519 66.7198 164.603 67.2712C165.687 67.8226 166.587 68.679 167.19 69.7349C167.794 70.7909 168.076 72.0003 168.001 73.2143C167.926 74.4283 167.498 75.594 166.769 76.5677C166.04 77.5415 165.042 78.2808 163.898 78.6948C162.755 79.1087 161.515 79.1792 160.332 78.8975C159.148 78.6158 158.073 77.9943 157.239 77.1094C156.151 75.8117 155.603 74.146 155.707 72.4559C155.811 70.7658 156.56 69.1802 157.799 68.026Z" fill="#6153BD"/>
<path d="M183.251 111.084C183.516 113.738 182.985 115.896 181.687 116.334C180.154 116.835 178.414 115.478 176.821 113.325C178.988 112.648 181.132 111.9 183.251 111.084Z" fill="#6153BD"/>
<path d="M163.727 122.173L165.526 124.68C165.91 123.539 166.324 122.408 166.768 121.288C165.703 121.583 164.671 121.878 163.727 122.173Z" fill="#6153BD"/>
<path d="M143.82 14.3804V50.2129C120.138 58.8245 96.4561 41.6013 72.7742 50.2129V14.3804C96.4561 5.76876 120.144 22.992 143.82 14.3804Z" fill="#6153BD"/>
<path d="M72.7742 80.2356V103.829" stroke="#120071" stroke-linecap="round" stroke-linejoin="round"/>
<path d="M72.7742 8.54102V63.3368" stroke="#120071" stroke-linecap="round" stroke-linejoin="round"/>
<path d="M141.873 100.732L145.796 121.347L159.893 101.234" stroke="#120071" stroke-linecap="round" stroke-linejoin="round"/>
<path d="M163.461 133.527C173.164 138.482 186.937 156.885 186.937 156.885L203.718 137.063C211.159 139.422 217.476 144.428 221.472 151.134L198.965 176.703C196.513 179.474 193.154 181.281 189.49 181.8C185.826 182.319 182.098 181.516 178.973 179.534L164.875 170.569L170.125 241.379C162.583 244.206 154.25 244.08 146.797 241.025L140.338 140.251" stroke="#120071" stroke-linecap="round" stroke-linejoin="round"/>
<path d="M150.544 161.456L165.231 175.435L164.877 170.569L150.544 161.456Z" stroke="#120071" stroke-linecap="round" stroke-linejoin="round"/>
<path d="M137.184 273.745C137.641 272.608 138.289 271.558 139.101 270.641H154.85C156.108 270.626 157.318 270.149 158.248 269.301C159.178 268.453 159.763 267.292 159.893 266.04C160.093 262.786 161.23 259.66 163.167 257.037C163.876 256.184 165.998 254.678 167 253.557C168.446 258.6 167.274 258.282 165.703 260.163C163.758 262.767 162.62 265.885 162.429 269.129C162.316 270.383 161.74 271.551 160.813 272.404C159.886 273.257 158.675 273.735 157.416 273.744L137.184 273.745Z" stroke="#120071" stroke-linecap="round" stroke-linejoin="round"/>
<path d="M150.223 242.27C151.109 250.192 150.649 258.206 148.863 265.975C147.006 266.01 145.178 266.44 143.5 267.236C141.822 268.032 140.333 269.176 139.131 270.591H154.879C156.139 270.587 157.352 270.115 158.283 269.268C159.215 268.421 159.799 267.258 159.922 266.004C160.104 262.747 161.243 259.615 163.196 257.002C163.924 256.137 166.057 254.642 167.03 253.522C166.882 253.02 166.735 252.489 166.529 251.87C165.756 248.86 165.493 245.742 165.752 242.645" stroke="#120071" stroke-linecap="round" stroke-linejoin="round"/>
<path d="M206.343 138.01L216.225 126.331C227.757 124.414 245.599 123.559 252.323 126.331C245.931 130.848 239.043 134.618 231.794 137.568C229.043 138.311 226.527 139.741 224.48 141.72L219.083 147.795" stroke="#120071" stroke-linecap="round" stroke-linejoin="round"/>
<path d="M252.32 126.331C253.607 125.426 254.866 124.482 256.095 123.5C249.576 120.374 230.614 120.993 218.906 123.146L216.225 126.331" stroke="#120071" stroke-linecap="round" stroke-linejoin="round"/>
<path d="M147.211 98.7238L149.481 96.1611C148.593 96.5259 147.676 96.8131 146.738 97.0164" stroke="#120071" stroke-linecap="round" stroke-linejoin="round"/>
<path d="M232.325 83.3571C232.384 83.4455 234.964 81.5363 238.076 79.1661C241.562 76.5274 241.233 74.8324 236.69 77.2492C234.448 78.5829 231.994 79.5207 229.435 80.0214" stroke="#120071" stroke-linecap="round" stroke-linejoin="round"/>
<path d="M227.636 77.6403C227.636 77.6403 235.397 72.1253 235.893 71.7419C239.521 68.9697 240.604 70.2021 237.84 73.305C235.297 76.1595 231.853 79.4393 231.853 79.4393" stroke="#120071" stroke-linecap="round" stroke-linejoin="round"/>
<path d="M174.344 97.5767C193.455 90.8231 213.982 81.1234 214.128 81.0613C215.707 80.3892 217.313 78.3776 217.019 76.8704C216.516 74.3046 215.395 70.6414 216.694 70.3822C218.669 69.9895 219.85 75.5138 221.708 76.7819C222.357 77.2243 224.213 75.8661 224.863 75.2483C225.95 74.213 229.639 70.7345 229.995 70.3822C233.255 67.1521 234.341 68.5894 231.971 71.6798C230.738 73.2285 229.706 74.9278 228.902 76.7369" stroke="#120071" stroke-linecap="round" stroke-linejoin="round"/>
<path d="M226.249 76.1657C228.71 78.4142 230.306 81.4524 230.762 84.754" stroke="#120071" stroke-linecap="round" stroke-linejoin="round"/>
<path d="M224.804 78.7004C225.807 82.3869 225.158 85.4246 222.032 87.312" stroke="#120071" stroke-linecap="round" stroke-linejoin="round"/>
<path d="M133.262 114.682C133.032 116.393 132.973 118.122 133.085 119.843" stroke="#120071" stroke-linecap="round" stroke-linejoin="round"/>
<path d="M152.933 94.7161C160.394 90.5251 164.453 83.9593 157.239 77.08C150.927 71.683 146.179 77.3454 143.82 82.2115" stroke="#120071" stroke-linecap="round" stroke-linejoin="round"/>
<path d="M157.799 68.026C158.736 67.2504 159.879 66.7657 161.088 66.6316C162.297 66.4975 163.519 66.7198 164.603 67.2712C165.687 67.8226 166.587 68.679 167.19 69.7349C167.794 70.7909 168.076 72.0003 168.001 73.2143C167.926 74.4283 167.498 75.594 166.769 76.5677C166.04 77.5415 165.042 78.2808 163.898 78.6948C162.755 79.1087 161.515 79.1792 160.332 78.8975C159.148 78.6158 158.073 77.9943 157.239 77.1094C156.151 75.8117 155.603 74.146 155.707 72.4559C155.811 70.7658 156.56 69.1802 157.799 68.026Z" stroke="#120071" stroke-linecap="round" stroke-linejoin="round"/>
<path d="M181.628 116.363C182.929 115.919 183.517 113.724 183.249 111.068" stroke="#120071" stroke-linecap="round" stroke-linejoin="round"/>
<path d="M176.821 113.325C192.992 108.169 219.736 94.8434 229.847 88.9652C231.972 87.7234 234.13 86.5562 236.277 85.3672C237.153 84.8849 238.018 84.3835 238.872 83.8631C242.509 81.6372 242.323 80.2356 237.751 81.9756C236.025 82.6219 234.236 83.0864 232.413 83.3617H232.384C231.778 83.4642 231.168 83.5232 230.555 83.5387" stroke="#120071" stroke-linecap="round" stroke-linejoin="round"/>
<path d="M74.8975 75.5169C77.8156 75.2685 77.8762 71.7373 75.045 71.7714C72.951 71.7978 71.447 71.8894 69.7954 71.9779C66.9937 72.1331 67.0527 75.8584 69.353 75.9298C71.2069 75.8847 73.0574 75.7469 74.8975 75.5169Z" stroke="#120071" stroke-linecap="round" stroke-linejoin="round"/>
<path d="M72.7152 63.6907C71.683 63.6612 70.9457 63.6767 69.943 63.6612C67.2887 63.6224 67.2002 67.3865 69.3826 67.5836C70.5126 67.6597 71.6442 67.6597 72.7742 67.5836" stroke="#120071" stroke-linecap="round" stroke-linejoin="round"/>
<path d="M75.6054 79.5278C78.4071 79.2065 78.4071 75.7823 75.6644 75.9003C73.6294 75.9888 72.1859 76.1192 70.5918 76.2542C67.9096 76.4808 68.026 80.0882 70.2379 80.0882C71.5945 80.0882 73.0101 79.8258 75.6054 79.5278Z" stroke="#120071" stroke-linecap="round" stroke-linejoin="round"/>
<path d="M72.802 67.6798C71.7155 67.7093 70.7966 67.7962 69.7349 67.8273C66.9037 67.9111 66.8447 71.6907 69.204 71.8382C70.6196 71.9266 72.1237 71.7155 74.837 71.5727C75.1408 71.5776 75.4412 71.509 75.7129 71.373C75.9846 71.2369 76.2194 71.0373 76.3975 70.7911C76.5756 70.5449 76.6917 70.2594 76.7359 69.9588C76.7801 69.6582 76.7511 69.3514 76.6515 69.0644C76.5164 68.6794 76.2619 68.3504 75.9235 68.1222" stroke="#120071" stroke-linecap="round" stroke-linejoin="round"/>
<path d="M127.334 92.8581C105.51 81.5037 79.7342 61.3826 76.2542 61.6263C72.1548 61.9134 72.5196 62.0919 72.8921 69.1172C72.9837 70.8246 75.9593 71.0047 76.4901 65.5471C76.0477 69.7381 77.9647 72.5957 80.7959 73.5099" stroke="#120071" stroke-linecap="round" stroke-linejoin="round"/>
<path d="M70.7687 80.0587C74.4847 80.4126 79.2034 80.3536 85.3671 84.8705C95.8817 92.5876 106.842 99.6779 118.192 106.105" stroke="#120071" stroke-linecap="round" stroke-linejoin="round"/>
<path d="M166.71 121.308C165.649 121.633 164.666 121.878 163.693 122.143L165.496 124.646" stroke="#120071" stroke-linecap="round" stroke-linejoin="round"/>
<path d="M166.71 121.308C165.182 125.261 164.089 129.368 163.451 133.557C158.231 138.954 145.372 143.26 140.323 140.251C137.315 130.317 133.54 126.951 133.068 119.843C127.405 116.982 121.242 113.591 117.673 110.347C117.673 103.8 121.654 96.0665 127.317 92.8581C132.025 95.731 136.878 98.3592 141.856 100.732C143.626 101.501 144.393 101.735 145.271 101.411C148.25 102.915 152.467 102.531 156.242 101.322C156.824 101.502 157.437 101.554 158.041 101.47C163.584 100.72 169.038 99.4157 174.321 97.5768C169.396 99.5201 176.273 117.696 181.605 116.358C176.7 118.182 171.732 119.833 166.71 121.308Z" stroke="#120071" stroke-linecap="round" stroke-linejoin="round"/>
<path d="M145.29 101.411C145.838 101.201 146.312 100.835 146.653 100.358C146.994 99.8805 147.186 99.3132 147.207 98.727C147.129 98.1402 146.972 97.5659 146.741 97.0196C140.542 97.985 141.096 88.6113 143.821 82.2147C146.476 77.0831 150.754 78.5484 151.607 84.1021C151.742 84.9807 152.539 84.6345 153.17 84.1316C155.353 82.6276 156.857 86.4599 153.613 87.5465C153.189 89.912 152.962 92.3102 152.934 94.713C152.95 97.7211 153.436 100.456 156.267 101.319" stroke="#120071" stroke-linecap="round" stroke-linejoin="round"/>
<path d="M184.489 303.459V273.79H124.562V303.459" stroke="#120071" stroke-linecap="round" stroke-linejoin="round"/>
<path d="M244.416 303.459V288.625H184.489V303.459" stroke="#120071" stroke-linecap="round" stroke-linejoin="round"/>
<path d="M124.562 303.459V281.635H64.6049V303.459" stroke="#120071" stroke-linecap="round" stroke-linejoin="round"/>
<path d="M143.82 14.3804V50.2129C120.138 58.8245 96.456 41.6013 72.7741 50.2129V14.3804C96.456 5.76876 120.144 22.992 143.82 14.3804Z" stroke="#120071" stroke-linecap="round" stroke-linejoin="round"/>
<path d="M81.3858 275.914V281.635H104.242V275.914H81.3858Z" stroke="#120071" stroke-linecap="round" stroke-linejoin="round"/>
<path d="M108.931 224.745C108.923 228.511 107.602 232.155 105.196 235.052C102.789 237.948 99.4485 239.914 95.7483 240.612V275.914H89.8205V240.612C86.1148 239.926 82.7668 237.963 80.3583 235.064C77.9499 232.165 76.6334 228.514 76.6376 224.745H108.931Z" stroke="#120071" stroke-linecap="round" stroke-linejoin="round"/>
<path d="M104.478 235.864C107.502 235.982 110.501 235.273 113.151 233.813C115.802 232.353 118.003 230.196 119.519 227.577H108.658" stroke="#120071" stroke-linecap="round" stroke-linejoin="round"/>
<path d="M81.0023 235.864C77.9784 235.982 74.9794 235.273 72.3288 233.813C69.6783 232.353 67.4767 230.196 65.9615 227.577H76.785" stroke="#120071" stroke-linecap="round" stroke-linejoin="round"/>
<path d="M93.9788 149.718C93.9777 150.745 94.2817 151.749 94.852 152.603C95.4224 153.457 96.2335 154.122 97.1825 154.515C98.2112 154.941 99.3498 155.025 100.43 154.754C101.51 154.484 102.475 153.873 103.181 153.013C103.888 152.152 104.299 151.087 104.354 149.975C104.408 148.863 104.104 147.762 103.486 146.836C102.867 145.91 101.967 145.208 100.919 144.832C99.8704 144.457 98.7291 144.429 97.6634 144.752C96.5978 145.075 95.6643 145.732 95.0008 146.627C94.3373 147.521 93.979 148.605 93.9788 149.718Z" stroke="#120071" stroke-linecap="round" stroke-linejoin="round"/>
<path d="M89.7443 232.977C89.7447 233.426 89.8446 233.87 90.037 234.276C90.2293 234.682 90.5093 235.041 90.8567 235.326C91.2042 235.611 91.6104 235.816 92.0464 235.925C92.4823 236.034 92.9371 236.046 93.378 235.958C93.9671 235.84 94.5081 235.55 94.9329 235.125C95.3577 234.7 95.6473 234.159 95.7653 233.57C95.8835 232.98 95.8238 232.369 95.5939 231.813C95.3639 231.258 94.9741 230.783 94.4738 230.45C93.8895 230.058 93.1873 229.882 92.4874 229.951C91.7876 230.02 91.1334 230.331 90.6368 230.828C90.0672 231.398 89.7458 232.171 89.7443 232.977Z" stroke="#120071" stroke-linecap="round" stroke-linejoin="round"/>
<path d="M192.054 45.5827V56.1703" stroke="#120071" stroke-linecap="round" stroke-linejoin="round"/>
<path d="M186.76 50.8773H197.377" stroke="#120071" stroke-linecap="round" stroke-linejoin="round"/>
<path d="M215.839 201.388L219.496 209.542H212.831L216.488 217.697" stroke="#120071" stroke-linecap="round" stroke-linejoin="round"/>
<path d="M209.551 139.547L191.685 160.63C188.5 164.523 185.993 164.376 183.162 160.66C177.884 153.729 168.239 141.608 160.189 136.182" stroke="#120071" stroke-linecap="round" stroke-linejoin="round"/>
<path d="M211.975 141.048L192.245 163.786C191.604 164.529 190.803 165.119 189.903 165.51C189.002 165.901 188.025 166.083 187.044 166.044C186.063 166.004 185.104 165.743 184.237 165.28C183.371 164.818 182.621 164.166 182.041 163.373C176.325 155.555 166.44 143.024 158.094 137.42" stroke="#120071" stroke-linecap="round" stroke-linejoin="round"/>
<path d="M157.239 165.85L162.783 243.148" stroke="#120071" stroke-linecap="round" stroke-linejoin="round"/>
<path d="M208.672 288.507H223.654L222.946 283.906H209.38L208.672 288.507Z" stroke="#120071" stroke-linecap="round" stroke-linejoin="round"/>
<path d="M222.239 266.063C226.102 266.063 234.979 261.272 234.979 248.59H226.397" stroke="#120071" stroke-linecap="round" stroke-linejoin="round"/>
<path d="M213.774 256.213L212.477 260.519L216.163 257.953L219.85 260.519L218.552 256.213L222.15 253.5L217.638 253.382L216.163 249.135L214.689 253.382L210.176 253.5L213.774 256.213Z" stroke="#120071" stroke-linecap="round" stroke-linejoin="round"/>
<path d="M209.38 283.901C214.069 282.25 214.689 280.569 214.718 275.821C214.572 273.96 213.964 272.166 212.949 270.6C208.744 264.255 205.871 259.238 205.871 245.09H226.456C226.456 258.594 223.875 263.406 219.525 270.335C218.419 271.968 217.749 273.856 217.579 275.821C217.678 280.569 218.2 282.25 222.917 283.901H209.38Z" stroke="#120071" stroke-linecap="round" stroke-linejoin="round"/>
<path d="M209.97 266.063C206.077 266.063 197.377 261.252 197.377 248.575H205.93" stroke="#120071" stroke-linecap="round" stroke-linejoin="round"/>
<path d="M41.4539 303.459H270.546" stroke="#120071" stroke-linecap="round" stroke-linejoin="round"/>
<path d="M145.796 121.347C147.008 121.347 148.171 121.829 149.028 122.686C149.885 123.543 150.367 124.706 150.367 125.918C150.367 127.131 149.885 128.293 149.028 129.151C148.171 130.008 147.008 130.49 145.796 130.49C144.583 130.49 143.421 130.008 142.563 129.151C141.706 128.293 141.225 127.131 141.225 125.918C141.225 124.706 141.706 123.543 142.563 122.686C143.421 121.829 144.583 121.347 145.796 121.347Z" stroke="#120071"/>
</svg>
