<svg width="364" height="364" viewBox="0 0 364 364" fill="none" xmlns="http://www.w3.org/2000/svg">
<path d="M288.595 154.304L288.052 150.682C287.953 150.047 287.982 149.4 288.135 148.776C288.288 148.152 288.563 147.565 288.945 147.048C289.713 146.003 290.865 145.307 292.146 145.11L284.783 146.209C283.647 146.386 282.609 146.957 281.85 147.821C281.092 148.686 280.661 149.79 280.634 150.939L266.652 152.75C268.407 154.402 270.024 156.01 271.297 157.43L281.422 156.205C281.768 157.311 282.499 158.257 283.481 158.872C284.463 159.488 285.632 159.732 286.779 159.561L294.095 158.458C293.46 158.553 292.813 158.52 292.191 158.361C291.569 158.203 290.985 157.922 290.473 157.535C289.961 157.148 289.532 156.663 289.209 156.109C288.887 155.554 288.678 154.94 288.595 154.304Z" fill="#FECFC4"/>
<path d="M123.999 118.108C115.259 114.091 102.047 96.7772 99.6041 101.457C98.3365 103.865 114.709 134.623 115.947 139.096C121.55 135.399 127.936 133.055 134.6 132.249C132.358 127.879 132.702 122.133 123.999 118.108Z" fill="#FECFC4"/>
<path d="M91.1744 191.428C88.9096 191.123 86.6072 191.263 84.3962 191.84C75.0375 194.041 54.8079 188.434 54.9455 193.698C55.0487 197.172 90.6583 211.315 92.1034 212.758C94.0152 206.701 97.2334 201.137 101.531 196.46C98.3365 194.971 95.7505 192.15 91.1744 191.428Z" fill="#FECFC4"/>
<path d="M318.736 50.5287C315.942 50.701 313.262 51.6984 311.035 53.3947C308.809 55.091 307.136 57.4098 306.228 60.0576C305.548 62.0366 305.316 64.1418 305.548 66.2214C305.779 68.301 306.47 70.3033 307.569 72.0839C308.668 73.8645 310.148 75.3792 311.903 76.5187C313.658 77.6582 315.644 78.3942 317.718 78.6737C319.792 78.9544 321.902 78.7717 323.896 78.1387C325.89 77.5056 327.72 76.438 329.252 75.0129C330.784 73.5877 331.98 71.8403 332.756 69.8968C333.531 67.9533 333.866 65.862 333.735 63.7736C333.503 60.0278 331.794 56.5275 328.982 54.0418C327.589 52.8111 325.967 51.8673 324.209 51.2645C322.451 50.6617 320.591 50.4116 318.736 50.5287ZM312.164 71.2816C311.552 71.096 311.016 70.7186 310.635 70.2051C310.254 69.6916 310.049 69.0692 310.048 68.4299C310.048 67.7905 310.254 67.168 310.634 66.6543C311.015 66.1407 311.551 65.763 312.163 65.5771C312.774 65.3913 313.43 65.407 314.032 65.6221C314.634 65.8372 315.151 66.2402 315.506 66.7716C315.862 67.3029 316.037 67.9346 316.006 68.5732C315.975 69.2118 315.74 69.8236 315.335 70.3182C314.833 70.9292 314.11 71.3167 313.323 71.3957C312.932 71.4355 312.539 71.3957 312.164 71.2816ZM321.488 63.0239C320.672 62.7793 319.947 62.2982 319.404 61.6414C318.861 60.9846 318.525 60.1816 318.438 59.3338C318.351 58.4861 318.518 57.6317 318.916 56.8786C319.315 56.1255 319.928 55.5075 320.678 55.1027C321.428 54.6979 322.281 54.5245 323.129 54.6043C323.978 54.6842 324.784 55.0138 325.445 55.5515C326.106 56.0891 326.593 56.8107 326.844 57.625C327.095 58.4393 327.099 59.3098 326.856 60.1264C326.524 61.2199 325.774 62.138 324.769 62.6807C323.763 63.2235 322.584 63.3468 321.488 63.0239ZM323.725 72.8027C323.516 72.7442 323.321 72.6448 323.152 72.5103C322.982 72.3757 322.84 72.2088 322.736 72.0191C322.631 71.8294 322.565 71.6208 322.542 71.4054C322.519 71.1901 322.538 70.9722 322.6 70.7645C322.662 70.5569 322.764 70.3636 322.902 70.1959C323.039 70.0282 323.208 69.8895 323.399 69.7878C323.59 69.6861 323.8 69.6234 324.016 69.6035C324.231 69.5836 324.449 69.6067 324.656 69.6717C325.065 69.8002 325.407 70.0845 325.608 70.4631C325.809 70.8418 325.854 71.2844 325.732 71.6955C325.609 72.1065 325.33 72.453 324.955 72.6602C324.58 72.8674 324.138 72.9186 323.725 72.8027Z" fill="#FECFC4"/>
<path d="M301.326 249.952C301.633 251.504 301.473 253.112 300.866 254.573C300.258 256.034 299.231 257.281 297.914 258.157C296.597 259.033 295.05 259.5 293.469 259.497C291.887 259.495 290.342 259.024 289.028 258.145C287.935 257.412 287.041 256.422 286.422 255.262C285.804 254.101 285.482 252.806 285.483 251.491C285.485 250.176 285.811 248.881 286.433 247.722C287.054 246.563 287.952 245.576 289.047 244.847C290.141 244.117 291.399 243.67 292.707 243.542C294.016 243.415 295.336 243.613 296.551 244.118C297.765 244.623 298.836 245.419 299.669 246.437C300.502 247.455 301.071 248.662 301.326 249.952Z" fill="#FECFC4"/>
<path d="M255.801 94.8504C255.291 77.3372 268.262 80.7779 275.178 104.003C272.425 92.2355 289.567 77.9909 290.791 145.561C290.158 145.847 289.604 146.282 289.174 146.829C285.053 136.959 277.19 142.93 278.267 150.994C278.41 152.073 277.628 152.643 275.998 150.863C274.291 148.953 272.3 150.012 272.112 152.069L267.597 152.62C261.016 146.046 255.689 138.327 251.879 129.841C244.206 113.773 248.541 95.1239 261.513 121.549C257.951 113.086 256.013 104.029 255.801 94.8504Z" fill="#6153BD"/>
<path d="M275.207 157.261C275.908 159.543 276.221 161.928 276.134 164.315C275.806 161.499 274.47 159.516 272.42 157.35L275.207 157.261Z" fill="#6153BD"/>
<path d="M229.005 107.094C228.421 105.826 227.557 104.106 226.735 102.523C229.382 102.864 230.141 104.651 229.005 107.094Z" fill="#6153BD"/>
<path d="M217.41 169.201C214.83 170.302 214.107 175.153 215.071 181.931L230.313 179.385C226.285 173.433 220.954 167.755 217.41 169.201Z" fill="#6153BD"/>
<path d="M245.175 224.737C244.59 228.109 242.801 230.208 239.498 228.763C241.39 227.452 243.283 226.11 245.175 224.737Z" fill="#6153BD"/>
<path d="M208.845 118.968C205.714 118.796 204.68 116.869 206.194 114.013C206.985 115.712 207.869 117.367 208.845 118.968Z" fill="#6153BD"/>
<path d="M279.133 175.91C279.133 176.298 278.979 176.67 278.704 176.945C278.43 177.219 278.058 177.373 277.67 177.373C277.282 177.373 276.91 177.219 276.635 176.945C276.361 176.67 276.207 176.298 276.207 175.91C276.207 175.522 276.361 175.15 276.635 174.875C276.91 174.601 277.282 174.447 277.67 174.447C278.058 174.447 278.43 174.601 278.704 174.875C278.979 175.15 279.133 175.522 279.133 175.91Z" fill="#6153BD"/>
<path d="M303.184 167.79C303.155 168.158 302.988 168.501 302.717 168.752C302.446 169.002 302.09 169.142 301.721 169.142C301.352 169.142 300.997 169.002 300.726 168.752C300.455 168.501 300.288 168.158 300.259 167.79C300.282 167.417 300.446 167.068 300.717 166.812C300.989 166.556 301.348 166.414 301.721 166.414C302.094 166.414 302.453 166.556 302.725 166.812C302.997 167.068 303.161 167.417 303.184 167.79Z" fill="#6153BD"/>
<path d="M312.747 141.711C312.747 141.908 312.707 142.102 312.63 142.283C312.553 142.465 312.441 142.628 312.299 142.765C312.158 142.901 311.99 143.008 311.807 143.079C311.623 143.149 311.427 143.182 311.23 143.175C311.034 143.168 310.841 143.121 310.662 143.038C310.484 142.955 310.324 142.837 310.193 142.691C310.061 142.544 309.96 142.373 309.896 142.187C309.833 142.001 309.807 141.804 309.821 141.608C309.847 141.229 310.02 140.876 310.302 140.622C310.584 140.368 310.954 140.233 311.334 140.247C311.713 140.26 312.072 140.42 312.336 140.693C312.6 140.967 312.747 141.331 312.747 141.711Z" fill="#6153BD"/>
<path d="M335.383 128.636C335.36 129.009 335.196 129.358 334.925 129.614C334.653 129.87 334.294 130.012 333.921 130.012C333.548 130.012 333.189 129.87 332.917 129.614C332.645 129.358 332.481 129.009 332.458 128.636C332.481 128.264 332.645 127.914 332.917 127.659C333.189 127.403 333.548 127.26 333.921 127.26C334.294 127.26 334.653 127.403 334.925 127.659C335.196 127.914 335.36 128.264 335.383 128.636Z" fill="#6153BD"/>
<path d="M273.182 200.305C273.168 200.684 273.008 201.042 272.735 201.306C272.463 201.569 272.098 201.716 271.719 201.717C271.34 201.716 270.977 201.568 270.705 201.304C270.432 201.041 270.272 200.683 270.258 200.305C270.272 199.926 270.432 199.568 270.704 199.304C270.977 199.041 271.34 198.893 271.719 198.892C272.098 198.894 272.462 199.041 272.734 199.305C273.007 199.568 273.167 199.926 273.182 200.305Z" fill="#6153BD"/>
<path d="M247.411 191.496C247.397 191.875 247.237 192.234 246.964 192.497C246.692 192.761 246.327 192.908 245.948 192.909C245.569 192.907 245.206 192.759 244.934 192.496C244.661 192.233 244.501 191.875 244.487 191.496C244.501 191.118 244.661 190.759 244.933 190.496C245.206 190.233 245.569 190.085 245.948 190.084C246.327 190.085 246.691 190.233 246.963 190.496C247.236 190.76 247.397 191.118 247.411 191.496Z" fill="#6153BD"/>
<path d="M255.05 166.064C255.027 166.437 254.863 166.786 254.591 167.042C254.32 167.298 253.961 167.44 253.588 167.44C253.214 167.44 252.855 167.298 252.584 167.042C252.312 166.786 252.148 166.437 252.125 166.064C252.148 165.692 252.312 165.342 252.584 165.086C252.855 164.831 253.214 164.688 253.588 164.688C253.961 164.688 254.32 164.831 254.591 165.086C254.863 165.342 255.027 165.692 255.05 166.064Z" fill="#6153BD"/>
<path d="M248.34 139.509C248.311 139.877 248.145 140.22 247.874 140.471C247.603 140.722 247.247 140.861 246.878 140.861C246.509 140.861 246.153 140.722 245.882 140.471C245.611 140.22 245.445 139.877 245.416 139.509C245.438 139.137 245.602 138.787 245.874 138.531C246.146 138.276 246.505 138.133 246.878 138.133C247.251 138.133 247.61 138.276 247.882 138.531C248.154 138.787 248.318 139.137 248.34 139.509Z" fill="#6153BD"/>
<path d="M220.197 128.636C220.175 129.009 220.011 129.358 219.739 129.614C219.467 129.87 219.108 130.012 218.735 130.012C218.362 130.012 218.003 129.87 217.731 129.614C217.459 129.358 217.295 129.009 217.273 128.636C217.295 128.264 217.459 127.914 217.731 127.659C218.003 127.403 218.362 127.26 218.735 127.26C219.108 127.26 219.467 127.403 219.739 127.659C220.011 127.914 220.175 128.264 220.197 128.636Z" fill="#6153BD"/>
<path d="M238.81 168.978H233.511L247.411 182.344L238.81 168.978Z" fill="#6153BD"/>
<path d="M283.881 166.138C282.584 165.793 281.335 165.284 280.165 164.624L283.675 169.269C283.582 168.221 283.652 167.165 283.881 166.138Z" fill="#6153BD"/>
<path d="M284.707 174.809C285.957 181.165 284.883 187.759 281.679 193.389L286.496 189.157C287.136 184.3 286.52 179.36 284.707 174.809Z" fill="#6153BD"/>
<path d="M290.797 145.565C289.558 77.9909 272.425 92.2355 275.178 104.003C268.262 80.7779 255.294 77.3372 255.801 94.8504C256.015 104.029 257.953 113.086 261.513 121.549C248.541 95.1257 244.21 113.771 251.879 129.841C255.677 138.307 260.987 146.011 267.549 152.573M276.134 164.315C275.806 161.492 274.461 159.509 272.404 157.336" stroke="#120071" stroke-linecap="round" stroke-linejoin="round"/>
<path d="M107.346 229.377C96.0458 230.167 84.7248 228.169 74.3783 223.557C64.0318 218.946 54.9767 211.863 48.0094 202.932C41.0422 194.001 36.3761 183.494 34.4215 172.336C32.467 161.179 33.2838 149.712 36.8003 138.944C39.7231 129.979 44.4488 121.707 50.6867 114.637C56.9247 107.566 64.543 101.846 73.0733 97.8284C81.6036 93.8108 90.8656 91.5806 100.29 91.2749C109.714 90.9692 119.101 92.5944 127.874 96.0506C136.646 99.5069 144.619 104.721 151.302 111.373C157.986 118.024 163.237 125.973 166.735 134.729C170.233 143.485 171.902 152.864 171.641 162.29C171.38 171.715 169.194 180.988 165.217 189.537" stroke="#120071" stroke-linecap="round" stroke-linejoin="round"/>
<path d="M122.347 173.983C112.231 180.073 101.359 186.198 91.1743 191.428" stroke="#120071" stroke-linecap="round" stroke-linejoin="round"/>
<path d="M153.388 113.635C175.58 105.241 191.342 102.795 194.571 108.371C198.81 115.696 180.12 134.899 149.74 156.231" stroke="#120071" stroke-linecap="round" stroke-linejoin="round"/>
<path d="M68.9835 202.128C37.9827 215.992 14.5877 221.505 10.5621 214.547C7.29338 208.904 17.6499 196.176 36.5376 180.865" stroke="#120071" stroke-linecap="round" stroke-linejoin="round"/>
<path d="M233.511 168.978L247.411 182.344L205.918 117.764" stroke="#120071" stroke-linecap="round" stroke-linejoin="round"/>
<path d="M291.244 158.018C291.313 171.334 280.165 164.624 280.165 164.624" stroke="#120071" stroke-linecap="round" stroke-linejoin="round"/>
<path d="M280.165 164.624L283.677 169.191" stroke="#120071" stroke-linecap="round" stroke-linejoin="round"/>
<path d="M289.214 146.735C285.276 137.137 277.04 142.693 278.256 151.128C278.376 151.959 277.713 152.758 276.004 150.863C274.312 148.98 272.335 150.016 272.125 152.042M272.701 164.796C274.971 167.102 277.69 167.171 275.212 157.261C275.096 157.178 274.981 157.092 274.868 157.004" stroke="#120071" stroke-linecap="round" stroke-linejoin="round"/>
<path d="M229.21 103.865C238.949 120.538 261.781 157.538 277.483 168.96C278.353 169.682 279.376 170.197 280.474 170.465C281.572 170.734 282.717 170.748 283.822 170.508C283.6 169.046 283.623 167.558 283.89 166.104" stroke="#120071" stroke-linecap="round" stroke-linejoin="round"/>
<path d="M286.221 189.425C288.113 183.369 284.707 174.802 284.707 174.802C284.707 174.802 292.782 200.832 243.904 228.278" stroke="#120071" stroke-linecap="round" stroke-linejoin="round"/>
<path d="M238.81 168.978H219.449" stroke="#120071" stroke-linecap="round" stroke-linejoin="round"/>
<path d="M281.679 193.389C281.679 193.389 316.293 164.595 340.307 125.712C337.286 120.515 332.482 116.59 326.787 114.665C319.194 125.617 310.971 136.117 302.159 146.113" stroke="#120071" stroke-linecap="round" stroke-linejoin="round"/>
<path d="M230.351 225.007C208.745 231.82 185.622 235.445 161.506 237.634C156.683 238.067 151.853 236.886 147.774 234.277C143.696 231.668 140.598 227.778 138.969 223.218C130.603 199.721 122.843 177.016 112.443 141.711C116.309 138.506 120.719 136.023 125.464 134.381C129.644 132.95 134.006 132.116 138.419 131.905L165.561 190.258L230.313 179.392" stroke="#120071" stroke-linecap="round" stroke-linejoin="round"/>
<path d="M239.498 228.757C249.233 233.017 245.32 210.871 238.81 195.384C235.135 186.643 223.656 165.591 217.101 169.391C214.772 170.74 214.147 175.466 215.071 181.966" stroke="#120071" stroke-linecap="round" stroke-linejoin="round"/>
<path d="M133.528 207.769L103.767 194.187C97.2671 200.34 92.7811 208.316 90.8989 217.066C112.371 233.839 135.322 248.625 159.47 261.243C162.347 262.778 165.532 263.646 168.79 263.783C172.047 263.92 175.294 263.323 178.289 262.035C201.876 252.072 224.305 239.563 245.175 224.73" stroke="#120071" stroke-linecap="round" stroke-linejoin="round"/>
<path d="M134.594 132.249C127.93 133.055 121.544 135.399 115.942 139.096C114.703 134.623 98.3309 103.867 99.5985 101.457C102.054 96.7826 115.256 114.077 123.993 118.117C132.705 122.128 132.358 127.879 134.594 132.249Z" stroke="#120071" stroke-linecap="round" stroke-linejoin="round"/>
<path d="M91.1744 191.428C88.9096 191.123 86.6072 191.263 84.3962 191.84C75.0375 194.041 54.8079 188.434 54.9455 193.698C55.0487 197.172 90.6583 211.315 92.1034 212.758C94.0152 206.701 97.2334 201.137 101.531 196.46C98.3365 194.971 95.7505 192.15 91.1744 191.428Z" stroke="#120071" stroke-linecap="round" stroke-linejoin="round"/>
<path d="M213.178 84.4594C213.178 84.4594 213.178 80.365 213.144 73.9997C213.108 67.3247 215.697 66.0462 216.688 73.6212C216.795 74.447 218.064 82.7391 218.443 85.182C218.649 86.5239 219.611 90.229 220.851 90.0714C224.254 89.6278 230.666 82.1831 232.685 84.3943C234 85.843 230.043 91.0729 227.111 94.6132C226.285 95.6078 225.772 96.8252 225.638 98.1114C225.503 99.3975 225.753 100.695 226.356 101.839C226.458 102.041 228.823 106.799 229.006 107.09" stroke="#120071" stroke-linecap="round" stroke-linejoin="round"/>
<path d="M213.691 86.1455C213.691 86.1455 209.289 72.2106 209.011 71.2816C206.828 63.9819 204.495 65.6407 205.571 72.2106C206.596 78.4745 207.744 86.1111 207.744 86.1111" stroke="#120071" stroke-linecap="round" stroke-linejoin="round"/>
<path d="M208.843 88.3764C206.712 84.1345 204.837 79.7684 203.229 75.3018C200.607 68.1487 198.646 69.9361 199.857 76.506C200.517 80.5652 201.485 84.5681 202.755 88.4797" stroke="#120071" stroke-linecap="round" stroke-linejoin="round"/>
<path d="M206.174 114.05C204.689 116.885 205.728 118.798 208.845 118.968C215.183 119.312 226.342 112.78 229.005 107.094C230.15 104.655 229.382 102.867 226.735 102.523" stroke="#120071" stroke-linecap="round" stroke-linejoin="round"/>
<path d="M205.192 92.0671C202.692 88.752 200.602 85.1462 198.968 81.3284C195.982 74.2659 194.104 76.2054 195.768 82.9112C196.212 84.7003 196.674 86.2468 197.076 87.5561C198.253 91.3047 199.381 95.0913 200.448 98.876C201.614 103.041 205.674 114.325 208.845 118.977" stroke="#120071" stroke-linecap="round" stroke-linejoin="round"/>
<path d="M215.931 85.4573C209.531 87.4873 205.918 90.756 201.755 96.0547" stroke="#120071" stroke-linecap="round" stroke-linejoin="round"/>
<path d="M217.513 88.4507C215.26 90.7262 213.505 93.4467 212.362 96.4385C211.218 99.4302 210.711 102.628 210.873 105.826" stroke="#120071" stroke-linecap="round" stroke-linejoin="round"/>
<path d="M328.232 115.252C328.232 115.252 332.567 107.27 331.292 101.009C329.78 93.5847 330.999 93.4307 334.699 99.9083C337.152 104.202 338.552 114.495 338.552 114.495" stroke="#120071" stroke-linecap="round" stroke-linejoin="round"/>
<path d="M339.275 124.06C339.275 124.06 345.879 113.291 347.464 106.031C348.838 99.7344 346.466 102.558 345.606 104.582" stroke="#120071" stroke-linecap="round" stroke-linejoin="round"/>
<path d="M340.012 100.765C340.35 98.4311 340.461 96.07 340.341 93.715C339.894 87.04 338.306 87.4855 337.245 93.2333C336.765 95.9307 336.122 98.5965 335.318 101.216" stroke="#120071" stroke-linecap="round" stroke-linejoin="round"/>
<path d="M338.759 99.3234C341.708 102.478 343.576 106.491 344.092 110.779" stroke="#120071" stroke-linecap="round" stroke-linejoin="round"/>
<path d="M340.341 97.1901C340.857 95.7414 341.341 94.1243 341.79 92.3387C343.366 86.0748 344.749 87.3497 344.439 92.9925C344.193 96.9553 343.485 100.876 342.33 104.675" stroke="#120071" stroke-linecap="round" stroke-linejoin="round"/>
<path d="M344.092 97.0869C345.709 90.2743 347.33 91.3753 346.879 97.5342C346.491 101.664 345.482 105.712 343.885 109.54" stroke="#120071" stroke-linecap="round" stroke-linejoin="round"/>
<path d="M100.946 262.268L101.772 267.016" stroke="#120071" stroke-linecap="round" stroke-linejoin="round"/>
<path d="M98.0902 272.281L93.3076 273.141" stroke="#120071" stroke-linecap="round" stroke-linejoin="round"/>
<path d="M111.818 269.872L107.036 270.698" stroke="#120071" stroke-linecap="round" stroke-linejoin="round"/>
<path d="M104.18 280.745L103.354 275.962" stroke="#120071" stroke-linecap="round" stroke-linejoin="round"/>
<path d="M107.029 270.698C106.143 270.861 105.23 270.756 104.405 270.395C103.58 270.034 102.882 269.434 102.402 268.673C102.082 268.169 101.865 267.605 101.764 267.016C101.873 267.604 101.863 268.208 101.736 268.792C101.61 269.376 101.368 269.929 101.025 270.419C100.683 270.909 100.246 271.326 99.7409 271.645C99.2358 271.965 98.6721 272.181 98.0828 272.281C98.6705 272.174 99.2734 272.185 99.857 272.312C100.441 272.439 100.993 272.68 101.484 273.021C101.974 273.363 102.391 273.8 102.711 274.304C103.031 274.809 103.247 275.373 103.347 275.962C103.239 275.374 103.248 274.771 103.375 274.187C103.502 273.603 103.744 273.049 104.086 272.56C104.429 272.07 104.865 271.653 105.37 271.333C105.876 271.014 106.439 270.798 107.029 270.698Z" stroke="#120071" stroke-linecap="round" stroke-linejoin="round"/>
<path d="M169.689 58.1381L170.274 61.4755" stroke="#120071" stroke-linecap="round" stroke-linejoin="round"/>
<path d="M167.66 65.1915L164.322 65.7764" stroke="#120071" stroke-linecap="round" stroke-linejoin="round"/>
<path d="M177.36 63.5056L173.99 64.0905" stroke="#120071" stroke-linecap="round" stroke-linejoin="round"/>
<path d="M171.96 71.1784L171.375 67.8065" stroke="#120071" stroke-linecap="round" stroke-linejoin="round"/>
<path d="M173.99 64.0905C173.574 64.1641 173.148 64.1548 172.736 64.063C172.324 63.9713 171.934 63.7989 171.588 63.5559C171.243 63.3129 170.949 63.004 170.724 62.6469C170.498 62.2899 170.345 61.8918 170.274 61.4756C170.348 61.8918 170.34 62.3185 170.248 62.7313C170.157 63.144 169.984 63.5346 169.741 63.8804C169.498 64.2263 169.189 64.5207 168.832 64.7467C168.475 64.9726 168.076 65.1257 167.659 65.197C168.075 65.1234 168.502 65.1327 168.914 65.2245C169.326 65.3163 169.716 65.4886 170.061 65.7316C170.407 65.9746 170.7 66.2836 170.926 66.6406C171.152 66.9976 171.304 67.3957 171.375 67.8119C171.301 67.3957 171.31 66.969 171.402 66.5562C171.493 66.1435 171.665 65.753 171.908 65.4071C172.151 65.0612 172.461 64.7668 172.818 64.5408C173.175 64.3149 173.574 64.1618 173.99 64.0905Z" stroke="#120071" stroke-linecap="round" stroke-linejoin="round"/>
<path d="M335.008 151.93L336.488 160.255" stroke="#120071" stroke-linecap="round" stroke-linejoin="round"/>
<path d="M330.019 169.476L321.695 170.955" stroke="#120071" stroke-linecap="round" stroke-linejoin="round"/>
<path d="M354.035 165.244L345.709 166.723" stroke="#120071" stroke-linecap="round" stroke-linejoin="round"/>
<path d="M340.72 184.236L339.24 175.91" stroke="#120071" stroke-linecap="round" stroke-linejoin="round"/>
<path d="M345.705 166.723C344.675 166.904 343.619 166.88 342.598 166.653C341.577 166.426 340.611 166 339.755 165.399C338.899 164.798 338.169 164.035 337.608 163.152C337.047 162.27 336.665 161.285 336.484 160.255C336.848 162.335 336.371 164.475 335.159 166.204C333.946 167.933 332.096 169.11 330.016 169.476C331.046 169.295 332.102 169.319 333.123 169.546C334.143 169.773 335.11 170.2 335.966 170.8C336.822 171.401 337.552 172.164 338.113 173.047C338.674 173.93 339.056 174.914 339.237 175.944C338.873 173.864 339.349 171.724 340.562 169.995C341.775 168.266 343.625 167.089 345.705 166.723Z" stroke="#120071" stroke-linecap="round" stroke-linejoin="round"/>
<path d="M293.481 251.5L229.657 277.717" stroke="#120071" stroke-linecap="round" stroke-linejoin="round"/>
<path d="M214.589 297.226L293.481 251.5L197.385 326.229" stroke="#120071" stroke-linecap="round" stroke-linejoin="round"/>
<path d="M301.326 249.952C301.633 251.504 301.473 253.112 300.866 254.573C300.258 256.034 299.231 257.281 297.914 258.157C296.597 259.033 295.05 259.5 293.469 259.497C291.887 259.495 290.342 259.024 289.028 258.145C287.935 257.412 287.041 256.422 286.422 255.262C285.804 254.101 285.482 252.806 285.483 251.491C285.485 250.176 285.811 248.881 286.433 247.722C287.054 246.563 287.952 245.576 289.047 244.847C290.141 244.117 291.399 243.67 292.707 243.542C294.016 243.415 295.336 243.613 296.551 244.118C297.765 244.623 298.836 245.419 299.669 246.437C300.502 247.455 301.071 248.662 301.326 249.952Z" stroke="#120071" stroke-linecap="round" stroke-linejoin="round"/>
<path d="M296.405 144.532C334.733 106.581 268.056 75.7183 306.384 37.7709" stroke="#120071" stroke-linecap="round" stroke-linejoin="round"/>
<path d="M128.091 133.557L152.899 200.89" stroke="#120071" stroke-linecap="round" stroke-linejoin="round"/>
<path d="M152.899 200.89C154.134 204.229 156.491 207.035 159.566 208.83C162.641 210.624 166.244 211.295 169.758 210.728" stroke="#120071" stroke-linecap="round" stroke-linejoin="round"/>
<path d="M169.793 210.728L240.358 199.238" stroke="#120071" stroke-linecap="round" stroke-linejoin="round"/>
<path d="M271.29 157.435L281.541 156.197L280.75 150.932L266.645 152.756L271.29 157.435Z" stroke="#120071" stroke-linecap="round" stroke-linejoin="round"/>
<path d="M292.139 145.152L284.776 146.253C283.82 146.4 282.929 146.827 282.216 147.479C281.502 148.132 280.998 148.981 280.766 149.92C280.612 150.544 280.583 151.192 280.681 151.827L281.225 155.449C281.413 156.73 282.103 157.884 283.141 158.657C284.18 159.431 285.482 159.761 286.764 159.576L294.095 158.458" stroke="#120071" stroke-linecap="round" stroke-linejoin="round"/>
<path d="M299.605 157.64C300.24 157.543 300.85 157.323 301.399 156.99C301.949 156.658 302.427 156.22 302.807 155.702C303.574 154.657 303.895 153.35 303.7 152.068L303.156 148.446C302.969 147.164 302.28 146.009 301.241 145.235C300.202 144.461 298.899 144.131 297.617 144.317L292.146 145.143C291.19 145.29 290.3 145.717 289.586 146.369C288.873 147.022 288.368 147.871 288.137 148.81C287.983 149.434 287.954 150.082 288.052 150.717L288.595 154.329C288.73 155.282 289.144 156.173 289.785 156.89C290.427 157.607 291.267 158.118 292.199 158.357C292.818 158.514 293.463 158.549 294.095 158.458L299.605 157.64Z" stroke="#120071" stroke-linecap="round" stroke-linejoin="round"/>
<path d="M318.736 50.5287C315.942 50.701 313.262 51.6984 311.035 53.3947C308.809 55.091 307.136 57.4098 306.228 60.0576C305.548 62.0366 305.316 64.1418 305.548 66.2214C305.779 68.301 306.47 70.3033 307.569 72.0839C308.668 73.8645 310.148 75.3792 311.903 76.5187C313.658 77.6582 315.644 78.3942 317.718 78.6737C319.792 78.9544 321.902 78.7717 323.896 78.1387C325.89 77.5056 327.72 76.438 329.252 75.0129C330.784 73.5877 331.98 71.8403 332.756 69.8968C333.531 67.9533 333.866 65.862 333.735 63.7736C333.503 60.0278 331.794 56.5275 328.982 54.0418C327.589 52.8111 325.967 51.8673 324.209 51.2645C322.451 50.6617 320.591 50.4116 318.736 50.5287ZM312.164 71.2816C311.552 71.096 311.016 70.7186 310.635 70.2051C310.254 69.6916 310.049 69.0692 310.048 68.4299C310.048 67.7905 310.254 67.168 310.634 66.6543C311.015 66.1407 311.551 65.763 312.163 65.5771C312.774 65.3913 313.43 65.407 314.032 65.6221C314.634 65.8372 315.151 66.2402 315.506 66.7716C315.862 67.3029 316.037 67.9346 316.006 68.5732C315.975 69.2118 315.74 69.8236 315.335 70.3182C314.833 70.9292 314.11 71.3167 313.323 71.3957C312.932 71.4355 312.539 71.3957 312.164 71.2816ZM321.488 63.0239C320.672 62.7793 319.947 62.2982 319.404 61.6414C318.861 60.9846 318.525 60.1816 318.438 59.3338C318.351 58.4861 318.518 57.6317 318.916 56.8786C319.315 56.1255 319.928 55.5075 320.678 55.1027C321.428 54.6979 322.281 54.5245 323.129 54.6043C323.978 54.6842 324.784 55.0138 325.445 55.5515C326.106 56.0891 326.593 56.8107 326.844 57.625C327.095 58.4393 327.099 59.3098 326.856 60.1264C326.524 61.2199 325.774 62.138 324.769 62.6807C323.763 63.2235 322.584 63.3468 321.488 63.0239ZM323.725 72.8027C323.516 72.7442 323.321 72.6448 323.152 72.5103C322.982 72.3757 322.84 72.2088 322.736 72.0191C322.631 71.8294 322.565 71.6208 322.542 71.4054C322.519 71.1901 322.538 70.9722 322.6 70.7645C322.662 70.5569 322.764 70.3636 322.902 70.1959C323.039 70.0282 323.208 69.8895 323.399 69.7878C323.59 69.6861 323.8 69.6234 324.016 69.6035C324.231 69.5836 324.449 69.6067 324.656 69.6717C325.065 69.8002 325.407 70.0845 325.608 70.4631C325.809 70.8418 325.854 71.2844 325.732 71.6955C325.609 72.1065 325.33 72.453 324.955 72.6602C324.58 72.8674 324.138 72.9186 323.725 72.8027Z" stroke="#120071"/>
</svg>
